<?xml version="1.0" encoding="UTF-8"?>
<svg version="1.1" viewBox="0 0 1146 894" width="1280" height="1280" xmlns="http://www.w3.org/2000/svg">
    <path transform="translate(849,46)"
          d="m0 0h42l25 2 11 2v1l-35 5-28 6-19 5-30 10-21 9-10 5 20-4 20-2h29l27 3 24 5 33 11 24 11 20 11 20 13v1l-18-1-31-1-35 1-42 3-37 4 21 7 24 11 18 10 18 12 16 12 11 9 14 12 16 16-3 1-22-6-30-6-41-6-17-2h-7l19 10 17 11 14 10 11 9 14 12 17 16 22 24 11 14 12 15 7 11-5-2-27-12-30-11-40-13-47-13-33-8 14 10 11 9 10 9 8 7 12 12 7 8 11 13 14 19 14 21 12 20 13 24 2 6-24-16-21-12-24-13-30-15-33-15-35-15-30-12 4 5 8 8 11 14 10 14 11 19 8 16 7 16 9 25 7 26 6 28 1 8-5-5-8-10-9-10-7-8-28-28-8-7-14-13-8-7-26-22-14-11-15-12-9-7 9 20 7 19 6 25 3 19 1 10 1 32-1 23-4 35-2 3-6-17-12-27-10-20-13-23-10-18-14-23-5-8 6 36 2 13 8 19 11 33 6 22 6 29 4 30 1 12v52l-3 27-5 26-8 27-8 21-12 25-14 23-14 19-2 1 3-9 9-22 7-24 4-20 1-8v-15l-10 19-16 24-10 13-9 11-10 11-7 8-22 22-1-2 10-18 11-22 11-28 8-26 6-26 1-7-12 13-21 21-11 9-12 10-18 13-18 12-25 15-20 11-2-1 26-26 9-11 11-13 14-19 13-20 11-19 8-16-21 13-27 14-22 10-27 10-29 9-23 6-4-1 17-10 24-16 16-12 11-9 13-11 16-15 9-9 7-8 12-14 15-20 11-17 9-16-2-4-17-11-21-12-21-11-34-15-37-14-25-10-16-8-16-9-15-11-13-11-12-12-11-14-10-15-11-20-16-36-10-19-8-10-7-7-12-6-7-2h-16l-12 4-10 7-5 4-9 12-2 2-1-3v-21l4-12 6-10 12-14 7-6 7-24 6-15 8-15 7-9 9-10 11-8 14-7 17-4 18-1 19 2 21 5 20 7 20 9 25 13 26 16 20 14 5 2 9-11 11-12 9-11 12-13 7-8 11-12 12-13 11-11 7-8 9-9 8-7 10-10 8-7 10-9 11-9 15-12 19-14 23-15 15-9 26-14 25-11 25-9 24-7 22-5 26-4z"
          fill="#1B2A76"/>
    <path transform="translate(824,85)"
          d="m0 0h29l27 3 24 5 33 11 24 11 20 11 20 13v1l-18-1-31-1-35 1-42 3-37 4 21 7 24 11 18 10 18 12 16 12 11 9 14 12 16 16-3 1-22-6-30-6-41-6-17-2h-7l19 10 17 11 14 10 11 9 14 12 17 16 22 24 11 14 12 15 7 11-5-2-27-12-30-11-40-13-47-13-33-8 14 10 11 9 10 9 8 7 12 12 7 8 11 13 14 19 14 21 12 20 13 24 2 6-24-16-21-12-24-13-30-15-33-15-35-15-30-12-4-1-12-5-36-13-41-13-41-11-36-8 2-6 13-20 14-21 12-17 16-21 7-9 12-14 11-12 5-5 9-10 12-11 10-9 14-11 13-10 19-13 20-12 8-4 22-5z"
          fill="#C7598B"/>
    <path transform="translate(560,442)"
          d="m0 0 3 3 7 11 11 18 13 22 14 26 8 16 11 23 6 16 2-15 2-27v-48l3 4 10 26 10 32 8 36 5 35 1 12v52l-3 27-5 26-8 27-8 21-12 25-14 23-14 19-2 1 3-9 9-22 7-24 4-20 1-8v-15l-10 19-16 24-10 13-9 11-10 11-7 8-22 22-1-2 10-18 11-22 11-28 8-26 6-26 1-7-12 13-21 21-11 9-12 10-18 13-18 12-25 15-20 11-2-1 26-26 9-11 11-13 14-19 13-20 11-19 8-16-21 13-27 14-22 10-27 10-29 9-23 6-4-1 17-10 24-16 16-12 11-9 13-11 16-15 9-9 7-8 12-14 15-20 11-17 9-16-2-4-17-11-21-12-21-11-34-15-37-14-25-10-16-8-16-9-7-5v-1l24-1 20-4 15-6 15-8 14-10 13-12 4-3 4 9 9 29 6 24 4 21 2 10 10-30 6-29 2-20v-19h2l14 33 13 35 9 29 2 9v5h2l1-8 7-32 4-30 1-14v-29l-1-12z"
          fill="#962045"/>
    <path transform="translate(578,296)"
          d="m0 0 1 2 10 1 38 9 42 12 36 12 34 12 6 3 10 9 11 12 12 16 13 21 8 15 9 21 9 25 7 26 6 28 1 8-5-5-8-10-9-10-7-8-28-28-8-7-14-13-8-7-26-22-14-11-15-12-9-7 9 20 7 19 6 25 3 19 1 10 1 32-1 23-4 35-2 3-6-17-12-27-10-20-13-23-10-18-14-23-5-8 6 36 2 26v35l-3 37-1 6-2-1-10-25-14-29-13-23-11-20-12-19-11-18 1-4 17-8 32-16 3-2-13-19-13-18-9-12-10-13-9-11-4-6 14-24 7-11z"
          fill="#470B68"/>
    <path transform="translate(297,230)"
          d="m0 0 19 1 25 5 23 8 20 9 25 13 26 16 20 14 4 4-12 14-10 11-7 8-11 12-14 15-9 9-8 7-13 11-18 12-14 7-12 4h-25l-16-6-11-8-7-6-3-1-7-11-10-10-12-6-7-2h-16l-12 4-10 7-5 4-9 12-2 2-1-3v-21l4-12 6-10 12-14 7-6 7-24 6-15 8-15 7-9 9-10 11-8 14-7 17-4z"
          fill="#DE8D62"/>
    <path transform="translate(849,46)"
          d="m0 0h42l25 2 11 2v1l-35 5-28 6-19 5-30 10-21 9-18 8-11 6-12 7-11 7-17 12-14 11-13 11-24 22-4 5-5 5-12 13-18 22-14 19-12 17-8 12-7-4 2-5-5 1-8-4 1-2-2-6-6-2h-5l-4-1-9 11-12 15-12 16-7 10-16 24-12 19-8 12-11 15-10 13-9 11-11 13-23 23-5-1-35-14-21-8-6-2 5-4 12-9 13-11 15-14 8-8 7-8 15-16 9-11 12-13 8-10 9-10 9-11 12-13 9-11 7-7 7-8 15-16 10-10 7-8 9-9 8-7 10-10 8-7 10-9 11-9 15-12 19-14 23-15 15-9 26-14 25-11 25-9 24-7 22-5 26-4z"
          fill="#7330B5"/>
    <path transform="translate(824,85)"
          d="m0 0h29l27 3 24 5 33 11 24 11 20 11 20 13v1l-18-1-31-1-35 1-42 3-37 4 21 7 24 11 18 10 18 12 16 12 11 9 14 12 16 16-3 1-22-6-30-6-41-6-47-5-28-2-22-1-9-1-2-2-1-6 2-12 2-9 2-10 2-14-25 5h-6l-1-2v-11l2-16 1-23 4-4 22-12 22-5z"
          fill="#D87864"/>
    <path transform="translate(554,614)"
          d="m0 0 4 2 14 12 8 7 16 16 12 16 9 15 7 14 5 17 3 14 2 20v5l-12 22-16 24-10 13-9 11-10 11-7 8-22 22-1-2 10-18 11-22 11-28 8-26 6-26 1-7-12 13-21 21-11 9-12 10-18 13-18 12-25 15-20 11-2-1 26-26 9-11 11-13 14-19 13-20 11-19 8-16-21 13-27 14-22 10-27 10-29 9-23 6-4-1 17-10 24-16 16-12 11-9 13-11 16-15 9-9 7-8 12-14 15-20 11-17 9-16z"
          fill="#25599B"/>
    <path transform="translate(700,209)"
          d="m0 0h38l-2 1v7l-2 12-2 8-2 14-2 7-1 11 13 3 43 8 31 7-2 5-12 23-20 40-2 3v2l-9-3-20-8-4-1-12-5-36-13-41-13-41-11-36-8 2-6 13-20 14-21 12-17 14-19 27-3 20-2z"
          fill="#A92D56"/>
    <path transform="translate(749,108)"
          d="m0 0 2 1-1 23-2 16v13l24-5h7v9l-2 7-2 12-2 13-1 8 2 3 9 1 22 1 9 1 2 2h-2l-2 12-2 13-1 2-2 14-2 8-1 9-1 2-1 10 2 2-8-1-28-6-39-7-3-2 2-16 2-10 2-12 1-2 3-19h-36l-19 1-20 2-26 3 2-4 6-8 12-14 11-12 5-5 9-10 12-11 10-9 14-11 13-10 19-13z"
          fill="#C03B6D"/>
    <path transform="translate(560,442)"
          d="m0 0 3 3 7 11 11 18 13 22 14 26 8 16 11 23 6 16 2-15 2-27v-48l3 4 10 26 10 32 8 36 5 35 1 12v52l-3 27-5 26-8 27-8 21-12 25-14 23-14 19-2 1 3-9 9-22 7-24 4-20 1-8h1v7h2l5-26 3-23 1-14v-29l-3-29-6-28-5-16-6-17-11-23-11-20-11-16-12-16-9-10-7-8-2 3v-39l-1-12z"
          fill="#C03C6E"/>
    <path transform="translate(297,230)"
          d="m0 0 19 1 25 5 23 8 20 9 25 13 26 16 3 3-6 2-31 3-16 1-18 2-56 5-26 2-19 2-45 4h-7v-7l6-15 8-15 7-9 9-10 11-8 14-7 17-4z"
          fill="#E49962"/>
    <path transform="translate(256,322)"
          d="m0 0h30l19 4 24 8 25 12 16 10 18 12 4 4-12 11-15 11-15 9-13 5-6 2h-25l-16-6-11-8-7-6-3-1-7-11-10-10-12-6-7-2h-16l-12 4-10 7-5 4-8 10-1-2 9-17 9-12 13-13 14-9 16-7z"
          fill="#B24350"/>
    <path transform="translate(849,46)"
          d="m0 0h42l25 2 11 2v1l-35 5-28 6-19 5-30 10-21 9-18 8-11 6-12 7-11 7-2 1-3-2-5-9v-2l-20 11-27 18-18 13-11 9-13 11-11 9-13 12-7-1-17-7-11-4-4-3 14-13 11-9 15-12 19-14 23-15 15-9 26-14 25-11 25-9 24-7 22-5 26-4z"
          fill="#AE33D2"/>
    <path transform="translate(524,389)"
          d="m0 0 5 5 13 19 12 18 5 8 3 27v29l-3 31-5 28-6 25h-2l-5-21-12-36-13-33-8-19v-2h-2l1 3v16l-3 26-5 23-10 30-2 2-5-28-6-25-8-27-4-12v-5l12-13 13-17 13-18 21-33z"
          fill="#215093"/>
    <path transform="translate(486,268)"
          d="m0 0 2 1-4 4 16 6 25 10 2 3-16 24-12 19-8 12-11 15-10 13-9 11-11 13-23 23-5-1-35-14-21-8-6-2 5-4 12-9 13-11 15-14 8-8 7-8 15-16 9-11 12-13 8-10 9-10 9-11z"
          fill="#3F39A1"/>
    <path transform="translate(814,288)"
          d="m0 0 7 3 16 12 13 11 13 12 10 10 7 8 11 13 14 19 14 21 12 20 13 24 2 6-24-16-21-12-24-13-30-15-33-15-35-15-1-3-2-1 4-4 22-44 11-20z"
          fill="#C03B6D"/>
    <path transform="translate(747,349)"
          d="m0 0 7 6 7 7 11 14 10 14 11 19 8 16 7 16 9 25 7 26 6 28 1 8-5-5-8-10-9-10-7-8-28-28-8-7-14-13-8-7-26-22-14-11-3-3 6-5 7-8 12-13 1-2h2l2-4 11-12 3-3 2-5z"
          fill="#904590"/>
    <path transform="translate(824,85)"
          d="m0 0h29l27 3 24 5 33 11 24 11 20 11 20 13v1l-18-1-31-1-35 1-42 3-37 4-2 1h-12l-2-1v-10l3-31 1-15 1-3z"
          fill="#E49962"/>
    <path transform="translate(270,389)"
          d="m0 0 4 2 10 8 10 6 12 4h25l19-7 9-5h6l11 5 21 8 29 12-5 5-11 9-15 10-15 8-17 6-10 2h-23l-16-5-11-6-5-2-8-16-12-26-8-16z"
          fill="#244092"/>
    <path transform="translate(613,414)"
          d="m0 0 4 2 10 16 2 1 6 33 2 18 1 16v35l-3 37-1 6-2-1-10-25-14-29-13-23-11-20-12-19-11-18 1-4 17-8 32-16z"
          fill="#5B30A8"/>
    <path transform="translate(645,314)"
          d="m0 0 7 1 39 12 40 14 13 5 3 3 1 4-4 6-9 9-6 8h-2l-2 4-15 16-7 8-4-1-18-14-3-1-5-5-16-12-20-14-16-11-3-3 7-8 14-15 4-5z"
          fill="#793384"/>
    <path transform="translate(613,573)"
          d="m0 0 3 3 10 21 8 23 6 25 4 27 1 13v29l-2 23-4 24-4 16h-2v-30l-2-20-4-19-4-12-8-16-10-16-13-16-18-18-14-11-2-3 8-6 5-3 9-6 5-5 3-1v-2l10-4 4-7 7-4 3-3z"
          fill="#8B1A39"/>
    <path transform="translate(567,239)"
          d="m0 0 12 2 4 4 2 6 7 3h4l-1 5 5 2-1 5-11 17-8 13h-2l-1 4-17 29-16 26-6 10-7-1-19-10-5-4v-2l-4-2-6-5v-5l10-15 10-16 9-13 13-18 11-14 9-11z"
          fill="#322B88"/>
    <path transform="translate(730,102)"
          d="m0 0h2l6 11 2 2-16 12-13 10-13 11-24 22-4 5-5 5-12 13-18 22-14 19-12 17-8 12-7-4 2-5-5 1-8-4 1-2-2-6-6-2h-5l-3-3 4-6 5-4 7-8 14-15 26-26 8-7 14-12 11-9 15-12 19-13 15-10 15-9z"
          fill="#4E2B99"/>
    <path transform="translate(749,108)"
          d="m0 0 2 1-1 23-2 16v13l24-5h7v9l-2 7-2 12-2 13-1 8 2 4h-27l-17-1v-8l5-29v-4l-8 1-26 8-27 11-15 8-11 7-2 1 1-4 11-12 7-8 5-5 11-12 10-9 11-10 14-11 13-10 19-13z"
          fill="#D46D65"/>
    <path transform="translate(256,322)"
          d="m0 0h30l19 4 24 8 13 6-2 4-14 6v2l-8 2 1-2-2-1-1 5-17 6-12 3-14 6-6 2-3 7-12-12-12-6-7-2h-16l-12 4-10 7-5 4-8 10-1-2 9-17 9-12 13-13 14-9 16-7z"
          fill="#BC5353"/>
    <path transform="translate(425,307)"
          d="m0 0h14v1h7l4-1-1 5-12 13-7 8-11 12-14 15-9 9-5 2-18-12-14-9-21-11-20-8-21-6 2-5 1-1h8v1h6l-4-2 16-2h14v1h6l-2-2 15-2h13v2l9-1-5-1v-1l14-2h16v1h3l-1-2z"
          fill="#DC8662"/>
    <path transform="translate(689,415)"
          d="m0 0 3 1 5 15 5 21 3 19 1 10 1 32-1 23-4 35-2 3-6-17-12-27-10-20-13-23-9-16v-2l5-2 26-39 7-10z"
          fill="#793485"/>
    <path transform="translate(862,157)"
          d="m0 0h6l19 9 22 13 17 12 14 11 13 11 12 11 11 11-3 1-22-6-30-6-41-6-26-3-1-5 7-39z" fill="#E49962"/>
    <path transform="translate(784,91)"
          d="m0 0h7l1 2v10l-3 29-1 18v2l15-2h7l-1 12-4 20-4 26v2h-18l-9-1-2-2-1-6 2-12 2-9 2-10 2-14-25 5h-6l-1-2v-11l2-16 1-23 4-4 22-12z"
          fill="#D87864"/>
    <path transform="translate(598,710)"
          d="m0 0 7 1 21 5 2 1 1-2 3 12 2 20v5l-12 22-16 24-10 13-9 11-10 11-7 8-22 22-1-2 10-18 11-22 11-28 8-26 6-26 1-9 1-1z"
          fill="#3575B3"/>
    <path transform="translate(904,246)"
          d="m0 0 8 6 11 9 24 22 12 13 11 12 11 14 12 15 7 11-5-2-27-12-30-11-40-13-7-2 3-2 5-24 5-31z" fill="#D76EA0"/>
    <path transform="translate(765,277)" d="m0 0 13 2 36 8-2 5-12 23-20 40-2 3v2l-9-3-20-8-4-1-12-5 4-9 9-19 13-26z"
          fill="#B13663"/>
    <path transform="translate(581,369)"
          d="m0 0 4 1 24 34 6 10-17 8-16 8-17 9h-3v3h-2l-1 3-2-8-16-24-11-16v-2l23-12h5l1-3 11-5z" fill="#3D2F95"/>
    <path transform="translate(559,462)" d="m0 0 3 4v29l-3 31-5 28-6 25h-2l-5-21-12-36-13-33-7-16v-3l21-4z"
          fill="#3474B2"/>
    <path transform="translate(700,209)" d="m0 0h38l-2 1v7l-2 12-2 8-2 14-2 7-1 12-17-2-32-5-7-4 2-13 5-28 3-8z"
          fill="#B23663"/>
    <path transform="translate(539,729)"
          d="m0 0 5 2 11 9 18 13v3l-12 12-11 9-12 10-18 13-18 12-25 15-20 11-2-1 26-26 9-11 11-13 14-19 13-20z"
          fill="#3575B3"/>
    <path transform="translate(770,209)"
          d="m0 0h13l22 1 9 1 2 2h-2l-2 12-2 13-1 2-2 14-2 8-1 9-1 2-1 10 2 2-8-1-28-6-7-1 1-12 7-37 2-10z"
          fill="#BE4776"/>
    <path transform="translate(868,223)" d="m0 0 5 2 18 11 12 9 2 6-5 31-5 24-1 1h-7l-36-10 2-4 3-8 6-33 3-16 1-12z"
          fill="#CF6092"/>
    <path transform="translate(794,416)"
          d="m0 0 4 2 10 23 9 25 7 26 6 28 1 8-5-5-8-10-9-10-7-8-28-28-8-7-5-6 9-9 8-10h2l2-4 8-8z" fill="#AB5C9F"/>
    <path transform="translate(486,268)"
          d="m0 0 2 1-4 4 16 6 25 10 2 3-16 24-12 19-6-1-44-17-4 1-2 1 2-4 11-12 8-10 9-10 9-11z" fill="#5B2FA7"/>
    <path transform="translate(579,171)"
          d="m0 0 5 1 15 6 16 6 3 2-28 28-7 8-9 10h-2l-2 5-5-2-27-11-8-2 5-7 6-7 9-10 8-8 8-7 10-10z" fill="#8C30C2"/>
    <path transform="translate(297,230)"
          d="m0 0 19 1 25 5 23 8 8 4 1 3-3 1-45 4-19 2-15 1-18 2-21 2-18 1v-3l11-12 10-7 14-7 17-4z" fill="#E7A462"/>
    <path transform="translate(904,94)" d="m0 0 10 2 23 8 24 11 20 11 20 13v1l-18-1-31-1-35 1-16 1h-11v-1l5-1 2-1 4-42z"
          fill="#EDB76A"/>
    <path transform="translate(554,614)"
          d="m0 0 4 2 14 12 8 7 16 16 4 5v4h-2v20l-5-2-11-8-8-6h-7l-1 8-7 17-3 1-5-5-9-13-11-15 1-4 13-20 9-16z"
          fill="#1D478C"/>
    <path transform="translate(396,368)" d="m0 0 1 2 3-1 27 11 23 9 6 2-4 6-25 25-5-1-35-14-21-8-6-2 5-4 12-9 13-11z"
          fill="#353A9C"/>
    <path transform="translate(504,462)" d="m0 0 3 4v21l-3 26-5 23-10 30-2 2-5-28-6-25-8-27-4-12v-5l5-5 15-1 18-2z"
          fill="#225093"/>
    <path transform="translate(633,474)" d="m0 0h1v7h2l1 3 1 16v35l-3 37-1 6-2-1-10-25-14-29-13-23-1-6 38-19z"
          fill="#742FB4"/>
    <path transform="translate(888,357)" d="m0 0h3l14 19 14 21 12 20 13 24 2 6-24-16-21-12-24-13-5-3-4-5 5-5 8-17 6-11z"
          fill="#D45787"/>
    <path transform="translate(341,341)"
          d="m0 0 5 1 20 11 3 3-6 4-4 3h-5l-13 8-14 6-16 4-11 4-3 3-15 5-1 3-5-2-4-4-3-1-5-8v-5l5-5 16-6 4-2 10-2 13-5h4l1-5 4 1 4-1 1-2 14-6z"
          fill="#B94C52"/>
    <path transform="translate(645,314)" d="m0 0 7 1 39 12v4l-9 10-7 8-12 13-6 8-4-2-32-22-3-3 7-8 14-15 4-5z"
          fill="#662378"/>
    <path transform="translate(429,325)"
          d="m0 0 6 2-6 7-9 10-15 16-9 9-5 2-18-12-14-9-21-11-7-3 2-2 28-2 3-1 30-2 3-1 30-2z" fill="#DA7F62"/>
    <path transform="translate(813,86)" d="m0 0h28v1h-14l-2 26-3 33 2 1-1 1-26 4h-9l-1-2 1-18 3-29 1-10-3-1-1-2 16-3z"
          fill="#DF8D62"/>
    <path transform="translate(860,324)"
          d="m0 0 7 6 14 15 9 11-2 9-8 16-8 15-3 3 3 2-1 2-24-12-13-6v-3h2l2-4 12-23 10-20v-7l-1-3z" fill="#CA4C74"/>
    <path transform="translate(487,705)"
          d="m0 0 3 1-1 3 7 11 9 11 3 4-17 9-27 11-36 12-30 8-4-1 17-10 24-16 16-12 11-9 13-11z" fill="#3575B3"/>
    <path transform="translate(775,384)"
          d="m0 0h3l13 21 6 12h-2l-7 9-7 7-7 8-11 12-4 1-7-7-8-7-9-7-1-4 5-3 11-12 7-8 12-14 5-5z" fill="#9D4F96"/>
    <path transform="translate(866,87)" d="m0 0 14 1 24 5v2l-2 2-3 32-2 8 3 2-35 4h-5l-3-3 2-22 2-18 1-12z"
          fill="#E9AA62"/>
    <path transform="translate(772,156)" d="m0 0h7v9l-2 7-2 12-2 13-1 8 2 4h-27l-17-1v-8l5-29v-4l-2-2z" fill="#C75562"/>
    <path transform="translate(730,102)"
          d="m0 0h2l6 11 2 2-16 12-13 10-13 11-24 22-5 5-3-1v-2h-2v-2l-5-1-5-4-4-8 13-11 19-14 24-16 15-9z"
          fill="#742FB4"/>
    <path transform="translate(814,211)"
          d="m0 0 19 1 7 1 1 2-2 5-2 15-5 25-2 8-2 15-2 6h-11l-6-2-8-3 1-11 1-2 2-14 2-8 1-9 2-7 3-17z" fill="#C55283"/>
    <path transform="translate(256,322)"
          d="m0 0h30l16 3-14 7-16 6-20 7-11 7-9 4-1 3-14 1-12 4-10 7-5 4-8 10-1-2 9-17 9-12 13-13 14-9 16-7z"
          fill="#C65C5C"/>
    <path transform="translate(557,694)"
          d="m0 0 5 1 15 11 12 9 7 3h1l-1 13-9 11-12 12-5-2-17-13-9-7-4-1 1-5 6-12 1-4h2l2-6z" fill="#2C62A3"/>
    <path transform="translate(446,316)" d="m0 0 9 2 20 8 23 9-4 8-13 18-4 2-29-12-18-7-7-1-7 7-2-1 12-12 14-16z"
          fill="#4C34A4"/>
    <path transform="translate(620,136)" d="m0 0 4 2 29 12 3 3-13 11-11 9-13 12-7-1-17-7-11-4-4-3 14-13 11-9z"
          fill="#A131CB"/>
    <path transform="translate(892,51)"
          d="m0 0h20v2l-31 5-26 6-32 10-27 11-20 9-11 6-12 7-11 7-2 1-3-2-5-9 1-4 28-14 27-11 27-9 8-2h5v-2l27-6 27-4z"
          fill="#8B32C2"/>
    <path transform="translate(589,768)"
          d="m0 0 1 3 16 4 10 2h3l-2 5-11 16-10 13-9 11-10 11-7 8-22 22-1-2 10-18 11-22 11-28 7-22z" fill="#4693CC"/>
    <path transform="translate(803,150)" d="m0 0h7l-1 12-4 20-4 26v2h-18l-9-1-2-2-1-6 2-12 2-9 2-10 2-14-4-1z"
          fill="#D46D64"/>
    <path transform="translate(567,239)"
          d="m0 0 12 2 4 4 2 6 7 3h4l-1 5 5 2-1 5-11 17-8 13-7-3-7-6v-4h2l-5-5-8-5v-2l-5-2-3-3 2-5 11-13z"
          fill="#3D2E95"/>
    <path transform="translate(649,158)"
          d="m0 0h2l4 7 5 4 4 1v2h2v2l3 1-9 10-9 11-10 11-6 8-6-1-8-7-5-5-6-4v-2l-2-1 16-16 8-7 14-12z" fill="#5C2FA7"/>
    <path transform="translate(842,148)" d="m0 0 8 2 16 6v2h-3l-6 37-3 17 3 2-5 1-19-2-4-1v-10l8-44 1-8z"
          fill="#DF8D62"/>
    <path transform="translate(613,414)" d="m0 0 4 2 10 16 2 1v6h-2l-1-2-23 11-15 8-12 6-2 2-7-11-6-10 1-4 17-8 32-16z"
          fill="#4E2B99"/>
    <path transform="translate(513,677)" d="m0 0h2l1 9 9 11 10 14 7 4-4 4-23 13-7 3-7-7-8-11-5-8v-4l6-7 15-16z"
          fill="#2C62A3"/>
    <path transform="translate(581,369)" d="m0 0 4 1 12 17v3l-21 11-30 15h-3l-11-16-2-5 23-12h5l1-3 11-5z"
          fill="#312A87"/>
    <path transform="translate(704,471)" d="m0 0h1l1 10 1 32-1 23-4 35-2 3-6-17-12-27-6-12 2-4 4-5 18-27h2v-8z"
          fill="#904892"/>
    <path transform="translate(913,183)" d="m0 0 5 2 17 13 11 9 14 12 16 16-3 1-22-6-30-6-13-2-1-6 5-31z"
          fill="#EDB76A"/>
    <path transform="translate(689,415)" d="m0 0 3 1 5 15 1 10-4 5-24 36-4 5-3 3h-2l-11-19v-2l5-2 26-39 7-10z"
          fill="#652479"/>
    <path transform="translate(559,462)" d="m0 0 3 4v29l-2-4-39 5h-2l-10-23v-3l21-4z" fill="#2B61A2"/>
    <path transform="translate(887,169)" d="m0 0 7 1 18 11 1 5-6 34 3 1h-8l-17-3-6-2 1-12 6-33z" fill="#E9AA62"/>
    <path transform="translate(515,768)" d="m0 0 2 2v2l2 4 15 11v3l-18 13-22 14-24 14-13 7-2-1 26-26 9-11 11-13z"
          fill="#3D81BF"/>
    <path transform="translate(607,304)" d="m0 0 8 1 30 8v2l-12 12-7 8-8 9-9-5-19-12-1-1v-5l7-7 7-9z" fill="#551771"/>
    <path transform="translate(554,441)" d="m0 0 5 2 1 2 1 9v11l-2-2-41 6-10 1-8-17v-3l4-2z" fill="#24589A"/>
    <path transform="translate(524,389)" d="m0 0 5 5 13 19 8 12-1 2-14 2-29 4-9 1v-4l12-18 14-22z" fill="#1C468C"/>
    <path transform="translate(504,499)" d="m0 0h1v8l-6 29-10 30-2 2-5-28-6-25-2-7v-5l25-3z" fill="#3474B2"/>
    <path transform="translate(682,398)" d="m0 0 3 1 6 14v5l-3 1-29 44-5 6-4-1-7-12v-2l5-5 29-43 4-5z" fill="#541771"/>
    <path transform="translate(708,138)"
          d="m0 0 2 2-1 1-2 12-1 17 1 4-26 10-17 8-16 10-2 1 1-4 11-12 7-8 5-5 11-12 10-9 11-10z" fill="#C65464"/>
    <path transform="translate(297,230)" d="m0 0 19 1 25 5 5 3-3 2-3 1-23 2-5 1-28 2-23 2h-13l1-3 13-8 14-5 10-2z"
          fill="#E9AB64"/>
    <path transform="translate(784,91)" d="m0 0h7l1 2v10l-3 29-1 18v2l4 1-17 3-4-1-1-4 2-22 2-18 1-14 3-4z"
          fill="#DB8063"/>
    <path transform="translate(218,326)"
          d="m0 0h15l4 2-16 8-11 8-12 12-10 15-6 12-1 4-2 2-1-3v-21l4-12 6-10 6-7 8-7 5-2 1 3 4-1-2-1 1-1z"
          fill="#DC8663"/>
    <path transform="translate(595,743)" d="m0 0 6 4 16 4 13 3 1 3-9 17-2 3-6 1-20-5-5-3-2 3 1-10 4-17z"
          fill="#3D81BF"/>
    <path transform="translate(798,88)"
          d="m0 0h11l-3 2 2 4v9l-3 7-1 15 1 4-1 9-2 2v8h2l-1 3-6 1h-9l-1-2 1-18 3-29 1-10-3-1-1-2z" fill="#DD8763"/>
    <path transform="translate(550,712)" d="m0 0 5 2 13 10 19 14 1 3-13 13-5-2-17-13-9-7-4-1 1-5 6-12h2z"
          fill="#2F69A9"/>
    <path transform="translate(543,636)" d="m0 0h1l2 7 8 11 7 9 4 4h2l-3 10-5 12-3 1-5-5-9-13-11-15 1-4z"
          fill="#225194"/>
    <path transform="translate(457,731)" d="m0 0 2 1-3 3-1 4 1 5h2l2 4 6 3 1 3-36 12-29 8-8 1 5-4 20-12 16-11 16-12z"
          fill="#3D81BF"/>
    <path transform="translate(599,681)" d="m0 0 10 1 5 1 3-1 7 14 5 17-1 4-14-3-16-4v-14z" fill="#2F68A8"/>
    <path transform="translate(579,636)" d="m0 0 4 2 13 13 4 5v4h-2v20l-5-2-11-8-8-6h-6l3-11 4-12 5-1z" fill="#215093"/>
    <path transform="translate(827,146)" d="m0 0h9l6 2-3 2-6 36-3 16-1 10h-9l-4-2 2-7 3-20 2-9 4-26-4-1z"
          fill="#DB7F63"/>
    <path transform="translate(498,694)" d="m0 0h2l10 13 9 12 7 7-17 9-7-6-12-16-2-6 1-4z" fill="#2F69A9"/>
    <path transform="translate(557,524)" d="m0 0h1v9l-7 34-3 12h-2l-5-21-9-28 1-3v2l17-3h7z" fill="#3C80BE"/>
    <path transform="translate(637,500)" d="m0 0h1v35l-3 37-1 6-2-1-10-25-8-17 6-5 13-6 4-1z" fill="#8E32BE"/>
    <path transform="translate(411,345)" d="m0 0 5 2-4 6-16 16-5 2-27-18v-2l5-2z" fill="#D77763"/>
    <path transform="translate(842,148)" d="m0 0 6 1 1 3-3 18v9l-2 3-5 29 2 2h-8l-4-1v-10l8-44 1-8z" fill="#DD8763"/>
    <path transform="translate(704,510)" d="m0 0h1l1 8v18l-4 35-2 3-6-17-9-21 6-7 11-16z" fill="#9C5197"/>
    <path transform="translate(560,474)" d="m0 0h1l1 7v14l-2-4-39 5h-2l-5-12 1-2 17-2 20-3h8z" fill="#2E68A8"/>
    <path transform="translate(866,87)" d="m0 0h7l1 6-4 46-1 1 2 2-11 1-3-3 2-22 2-18 1-12z" fill="#E7A462"/>
    <path transform="translate(505,482)" d="m0 0h1v17h-2l-1 2-23 2-7 1-4-13v-4l9-2z" fill="#2B61A2"/>
    <path transform="translate(772,156)" d="m0 0h7v9l-2 7-2 12-2 13-1 8 2 4h-10l-4-2 3-21 4-21v-8z" fill="#C65C5C"/>
    <path transform="translate(623,428)" d="m0 0h2l2 4 2 1v6h-2l-1-2-23 11-15 8-12 6-2 2-4-7 1-3 16-8 17-9 10-5 6-1z"
          fill="#4C34A4"/>
    <path transform="translate(492,437)" d="m0 0 3 3 9 20v3l-10 2-21 2-3-2 9-11z" fill="#1C478C"/>
    <path transform="translate(492,798)" d="m0 0 3 1-1 3 7 5 6 1-5 4-25 15-20 11-2-1 26-26 9-11z" fill="#4893CB"/>
    <path transform="translate(892,51)" d="m0 0h20v2l-31 5-26 6-20 6-4-1-3-7 27-6 27-4z" fill="#9939C9"/>
    <path transform="translate(200,346)" d="m0 0 6 1-6 7-9 12-9 17-1 4-2 2-1-3v-21l4-12 2-4 13-2z" fill="#DB7F63"/>
    <path transform="translate(708,138)" d="m0 0 2 2-1 1-2 12-1 17 1 4-11 4h-5l-1-4 2-20 12-12z" fill="#C55B5C"/>
    <path transform="translate(498,528)" d="m0 0h2l-1 8-10 30-2 2-5-28-1-11 2 1z" fill="#4490CA"/>
    <path transform="translate(887,169)" d="m0 0 7 1 1 3-7 38-1 7-8-2 1-12 6-33z" fill="#E7A462"/>
    <path transform="translate(820,487)" d="m0 0 1 2h2l6 25 2 14-5-5-8-10-9-10-1-3 7-6z" fill="#CF70A3"/>
    <path transform="translate(505,472)" d="m0 0h1v10l-1 1-34 4-3 1-2-6v-4l21-3 9-1h9z" fill="#24589A"/>
    <path transform="translate(599,681)" d="m0 0 10 1 5 1 3-1 7 14-1 5-11-2-13-3z" fill="#2C60A2"/>
    <path transform="translate(500,491)" d="m0 0h5l1 1v7h-2l-1 2-23 2-7 1-2-10z" fill="#2E68A8"/>
    <path transform="translate(428,753)" d="m0 0 1 3-1 4 4 3 3 2-37 10-4-1 17-10z" fill="#4590CA"/>
    <path transform="translate(560,442)" d="m0 0 3 3 7 11 6 10-1 3-1-1h-10l-1 3v-5h-2l-1-12z" fill="#C25166"/>
    <path transform="translate(501,518)" d="m0 0h1l-1 10-7 2-12 1-2-1-1-9 21-2z" fill="#3C80BE"/>
    <path transform="translate(702,540)" d="m0 0 3 3-2 21-2 10-2-3-6-16 1-5 5-5 3-1z" fill="#A261A3"/>
    <path transform="translate(552,551)" d="m0 0h1v7l-5 21h-2l-5-21v-5l10-1z" fill="#4490C9"/>
    <path transform="translate(932,420)" d="m0 0 3 4 11 21-1 2-12-9-5-4-1-3h2l2-5z" fill="#D36693"/>
    <path transform="translate(178,365)" d="m0 0h2v2l8-1 2 2-8 15-1 4-2 2-1-3z" fill="#D87963"/>
    <path transform="translate(358,517)" d="m0 0 7 1 6 2-1 2 7 4-3 2-15-9z" fill="#A13760"/>
    <path transform="translate(633,753)" d="m0 0h1v13l4-1-3 12h-2z" fill="#89355B"/>
    <path transform="translate(633,778)" d="m0 0 1 4-5 19h-2l2-12 3-10z" fill="#93345B"/>
    <path transform="translate(634,566)" d="m0 0h1l-1 12-2-1-3-10z" fill="#A13BB8"/>
    <path transform="translate(562,466)" d="m0 0h1l1 8-2 2zm2 2h4v2l6-1v2l-9 1z" fill="#C54571"/>
    <path transform="translate(188,374)" d="m0 0 1 3-7 8-1-2 4-8z" fill="#C76463"/>
    <path transform="translate(916,49)" d="m0 0h8l3 2-13 1v-2z" fill="#8A5DC6"/>
    <path transform="translate(607,853)" d="m0 0" fill="#D86DA0"/>
    <path transform="translate(393,775)" d="m0 0" fill="#FEFEFE"/>
    <path transform="translate(976,236)" d="m0 0" fill="#EDB769"/>
</svg>
